<svg width="147" height="26" viewBox="0 0 147 26" fill="none" xmlns="http://www.w3.org/2000/svg">
<path d="M15.3241 0.619141L15.5174 8.56445H14.7967C14.4569 6.57227 13.619 4.97266 12.2831 3.76562C10.9588 2.54688 9.52328 1.9375 7.97641 1.9375C6.7811 1.9375 5.83188 2.25977 5.12875 2.9043C4.43735 3.53711 4.09164 4.26953 4.09164 5.10156C4.09164 5.62891 4.21469 6.09766 4.46078 6.50781C4.80063 7.05859 5.34555 7.60352 6.09555 8.14258C6.64633 8.5293 7.91782 9.21484 9.91 10.1992C12.6991 11.5703 14.5799 12.8652 15.5526 14.084C16.5135 15.3027 16.994 16.6973 16.994 18.2676C16.994 20.2598 16.2147 21.9766 14.6561 23.418C13.1092 24.8477 11.1405 25.5625 8.74985 25.5625C7.99985 25.5625 7.29086 25.4863 6.62289 25.334C5.95493 25.1816 5.11703 24.8945 4.10922 24.4727C3.54672 24.2383 3.08383 24.1211 2.72055 24.1211C2.41586 24.1211 2.0936 24.2383 1.75375 24.4727C1.41391 24.707 1.13852 25.0645 0.927582 25.5449H0.277191V16.5449H0.927582C1.44321 19.0762 2.43344 21.0098 3.89828 22.3457C5.37485 23.6699 6.96274 24.332 8.66196 24.332C9.97446 24.332 11.0174 23.9746 11.7909 23.2598C12.576 22.5449 12.9686 21.7129 12.9686 20.7637C12.9686 20.2012 12.8163 19.6562 12.5116 19.1289C12.2186 18.6016 11.7674 18.1035 11.1581 17.6348C10.5487 17.1543 9.47055 16.5332 7.92368 15.7715C5.75571 14.7051 4.19711 13.7969 3.24789 13.0469C2.29868 12.2969 1.56625 11.459 1.05063 10.5332C0.546722 9.60742 0.294769 8.58789 0.294769 7.47461C0.294769 5.57617 0.992035 3.95898 2.38657 2.62305C3.7811 1.28711 5.53891 0.619141 7.66 0.619141C8.43344 0.619141 9.18344 0.712891 9.91 0.900391C10.4608 1.04102 11.1288 1.30469 11.9139 1.69141C12.7108 2.06641 13.2674 2.25391 13.5838 2.25391C13.8885 2.25391 14.1288 2.16016 14.3045 1.97266C14.4803 1.78516 14.6444 1.33398 14.7967 0.619141H15.3241ZM32.7095 18.2148H24.2896L23.2877 20.5352C22.9595 21.3086 22.7955 21.9473 22.7955 22.4512C22.7955 23.1191 23.065 23.6113 23.6041 23.9277C23.9205 24.1152 24.6998 24.2559 25.942 24.3496V25H18.0142V24.3496C18.8697 24.2207 19.5728 23.8691 20.1236 23.2949C20.6744 22.709 21.3541 21.5078 22.1627 19.6914L30.6881 0.671875H31.022L39.6177 20.2188C40.4381 22.0703 41.1119 23.2363 41.6392 23.7168C42.0377 24.0801 42.6002 24.291 43.3267 24.3496V25H31.7955V24.3496H32.2701C33.1959 24.3496 33.8463 24.2207 34.2213 23.9629C34.4791 23.7754 34.608 23.5059 34.608 23.1543C34.608 22.9434 34.5728 22.7266 34.5025 22.5039C34.4791 22.3984 34.3033 21.959 33.9752 21.1855L32.7095 18.2148ZM32.1119 16.9141L28.5611 8.70508L24.9048 16.9141H32.1119ZM51.9934 1.16406L63.7532 15.9473V5.69922C63.7532 4.26953 63.5481 3.30273 63.138 2.79883C62.5755 2.11914 61.6321 1.79102 60.3079 1.81445V1.16406H68.1829V1.81445C67.1751 1.94336 66.4954 2.11328 66.1438 2.32422C65.804 2.52344 65.5345 2.85742 65.3352 3.32617C65.1477 3.7832 65.054 4.57422 65.054 5.69922V25.5449H64.4563L48.3372 5.69922V20.8516C48.3372 22.2227 48.6477 23.1484 49.2688 23.6289C49.9016 24.1094 50.6223 24.3496 51.4309 24.3496H51.9934V25H43.5384V24.3496C44.8509 24.3379 45.7649 24.0684 46.2806 23.541C46.7962 23.0137 47.054 22.1172 47.054 20.8516V4.0293L46.5442 3.39648C46.0403 2.76367 45.595 2.34766 45.2083 2.14844C44.8216 1.94922 44.2649 1.83789 43.5384 1.81445V1.16406H51.9934ZM81.5078 24.3496V25H69.0449V24.3496H69.8359C70.5273 24.3496 71.084 24.2266 71.5059 23.9805C71.8105 23.8164 72.0449 23.5352 72.209 23.1367C72.3379 22.8555 72.4023 22.1172 72.4023 20.9219V5.24219C72.4023 4.02344 72.3379 3.26172 72.209 2.95703C72.0801 2.65234 71.8164 2.38867 71.418 2.16602C71.0312 1.93164 70.5039 1.81445 69.8359 1.81445H69.0449V1.16406H81.5078V1.81445H80.7168C80.0254 1.81445 79.4688 1.9375 79.0469 2.18359C78.7422 2.34766 78.502 2.62891 78.3262 3.02734C78.1973 3.30859 78.1328 4.04688 78.1328 5.24219V20.9219C78.1328 22.1406 78.1973 22.9023 78.3262 23.207C78.4668 23.5117 78.7305 23.7812 79.1172 24.0156C79.5156 24.2383 80.0488 24.3496 80.7168 24.3496H81.5078ZM104.343 1.16406V7.61523H103.71C103.335 6.12695 102.919 5.06055 102.462 4.41602C102.005 3.75977 101.378 3.23828 100.581 2.85156C100.135 2.64062 99.3562 2.53516 98.2429 2.53516H96.4675V20.9219C96.4675 22.1406 96.532 22.9023 96.6609 23.207C96.8015 23.5117 97.0652 23.7812 97.4519 24.0156C97.8503 24.2383 98.3894 24.3496 99.0691 24.3496H99.8601V25H87.3796V24.3496H88.1706C88.862 24.3496 89.4187 24.2266 89.8406 23.9805C90.1452 23.8164 90.3855 23.5352 90.5613 23.1367C90.6902 22.8555 90.7546 22.1172 90.7546 20.9219V2.53516H89.032C87.4265 2.53516 86.2605 2.875 85.5339 3.55469C84.5144 4.50391 83.8699 5.85742 83.6003 7.61523H82.9324V1.16406H104.343ZM117.228 18.2148H108.808L107.806 20.5352C107.478 21.3086 107.314 21.9473 107.314 22.4512C107.314 23.1191 107.583 23.6113 108.123 23.9277C108.439 24.1152 109.218 24.2559 110.46 24.3496V25H102.533V24.3496C103.388 24.2207 104.091 23.8691 104.642 23.2949C105.193 22.709 105.873 21.5078 106.681 19.6914L115.206 0.671875H115.54L124.136 20.2188C124.956 22.0703 125.63 23.2363 126.158 23.7168C126.556 24.0801 127.119 24.291 127.845 24.3496V25H116.314V24.3496H116.789C117.714 24.3496 118.365 24.2207 118.74 23.9629C118.998 23.7754 119.126 23.5059 119.126 23.1543C119.126 22.9434 119.091 22.7266 119.021 22.5039C118.998 22.3984 118.822 21.959 118.494 21.1855L117.228 18.2148ZM116.63 16.9141L113.08 8.70508L109.423 16.9141H116.63ZM144.457 0.619141L144.651 8.56445H143.93C143.59 6.57227 142.752 4.97266 141.416 3.76562C140.092 2.54688 138.656 1.9375 137.11 1.9375C135.914 1.9375 134.965 2.25977 134.262 2.9043C133.57 3.53711 133.225 4.26953 133.225 5.10156C133.225 5.62891 133.348 6.09766 133.594 6.50781C133.934 7.05859 134.479 7.60352 135.229 8.14258C135.779 8.5293 137.051 9.21484 139.043 10.1992C141.832 11.5703 143.713 12.8652 144.686 14.084C145.647 15.3027 146.127 16.6973 146.127 18.2676C146.127 20.2598 145.348 21.9766 143.789 23.418C142.242 24.8477 140.274 25.5625 137.883 25.5625C137.133 25.5625 136.424 25.4863 135.756 25.334C135.088 25.1816 134.25 24.8945 133.242 24.4727C132.68 24.2383 132.217 24.1211 131.854 24.1211C131.549 24.1211 131.227 24.2383 130.887 24.4727C130.547 24.707 130.272 25.0645 130.061 25.5449H129.41V16.5449H130.061C130.576 19.0762 131.567 21.0098 133.031 22.3457C134.508 23.6699 136.096 24.332 137.795 24.332C139.108 24.332 140.151 23.9746 140.924 23.2598C141.709 22.5449 142.102 21.7129 142.102 20.7637C142.102 20.2012 141.949 19.6562 141.645 19.1289C141.352 18.6016 140.901 18.1035 140.291 17.6348C139.682 17.1543 138.604 16.5332 137.057 15.7715C134.889 14.7051 133.33 13.7969 132.381 13.0469C131.432 12.2969 130.699 11.459 130.184 10.5332C129.68 9.60742 129.428 8.58789 129.428 7.47461C129.428 5.57617 130.125 3.95898 131.52 2.62305C132.914 1.28711 134.672 0.619141 136.793 0.619141C137.567 0.619141 138.317 0.712891 139.043 0.900391C139.594 1.04102 140.262 1.30469 141.047 1.69141C141.844 2.06641 142.401 2.25391 142.717 2.25391C143.022 2.25391 143.262 2.16016 143.438 1.97266C143.613 1.78516 143.777 1.33398 143.93 0.619141H144.457Z" fill="white"/>
</svg>
