<svg width="196" height="19" viewBox="0 0 196 19" fill="none" xmlns="http://www.w3.org/2000/svg">
<path d="M9.65117 9.48828L13.2449 0.757812H18.6355V1.11914H18.2059C17.8152 1.11914 17.5027 1.1875 17.2684 1.32422C17.1056 1.41536 16.9754 1.56836 16.8777 1.7832C16.8061 1.93945 16.7703 2.34635 16.7703 3.00391V11.7344C16.7703 12.4115 16.8061 12.8346 16.8777 13.0039C16.9493 13.1732 17.0958 13.3229 17.3172 13.4531C17.5385 13.5768 17.8348 13.6387 18.2059 13.6387H18.6355V14H11.7215V13.6387H12.1512C12.5418 13.6387 12.8543 13.5703 13.0887 13.4336C13.2514 13.3424 13.3816 13.1862 13.4793 12.9648C13.5509 12.8086 13.5867 12.3984 13.5867 11.7344V1.91992L8.50859 14H8.27422L3.11797 2.00781V11.334C3.11797 11.985 3.13424 12.3854 3.16679 12.5352C3.25143 12.8607 3.43372 13.1276 3.71367 13.3359C4.00013 13.5378 4.44609 13.6387 5.05156 13.6387V14H0.520309V13.6387H0.657028C0.949997 13.6452 1.22343 13.5996 1.47734 13.502C1.73125 13.3978 1.9233 13.2611 2.05351 13.0918C2.18372 12.9225 2.28463 12.6849 2.35625 12.3789C2.36927 12.3073 2.37578 11.9753 2.37578 11.3828V3.00391C2.37578 2.33333 2.33997 1.91667 2.26836 1.75391C2.19674 1.58464 2.05026 1.43815 1.8289 1.31445C1.60755 1.18424 1.31133 1.11914 0.940231 1.11914H0.520309V0.757812H5.93047L9.65117 9.48828ZM24.3195 12.6523C23.2062 13.6354 22.2069 14.127 21.3215 14.127C20.8006 14.127 20.3677 13.9577 20.0227 13.6191C19.6776 13.2741 19.5051 12.8444 19.5051 12.3301C19.5051 11.6335 19.8046 11.0085 20.4035 10.4551C21.0025 9.89518 22.3078 9.15299 24.3195 8.22852V7.31055C24.3195 6.62044 24.2805 6.1875 24.2023 6.01172C24.1307 5.82943 23.9908 5.67318 23.7824 5.54297C23.5741 5.40625 23.3397 5.33789 23.0793 5.33789C22.6561 5.33789 22.3078 5.43229 22.0344 5.62109C21.8651 5.73828 21.7805 5.875 21.7805 6.03125C21.7805 6.16797 21.8716 6.33724 22.0539 6.53906C22.3013 6.81901 22.425 7.08919 22.425 7.34961C22.425 7.66862 22.3046 7.94206 22.0637 8.16992C21.8293 8.39128 21.52 8.50195 21.1359 8.50195C20.7258 8.50195 20.3807 8.37826 20.1008 8.13086C19.8273 7.88346 19.6906 7.59375 19.6906 7.26172C19.6906 6.79297 19.8762 6.34701 20.2473 5.92383C20.6184 5.49414 21.1359 5.16536 21.8 4.9375C22.4641 4.70964 23.1542 4.5957 23.8703 4.5957C24.7362 4.5957 25.4198 4.78125 25.9211 5.15234C26.4289 5.51693 26.7577 5.91406 26.9074 6.34375C26.9986 6.61719 27.0441 7.24544 27.0441 8.22852V11.7734C27.0441 12.1901 27.0604 12.4538 27.093 12.5645C27.1255 12.6686 27.1743 12.7467 27.2395 12.7988C27.3046 12.8509 27.3794 12.877 27.4641 12.877C27.6333 12.877 27.8059 12.7565 27.9816 12.5156L28.2746 12.75C27.9491 13.2318 27.6105 13.5833 27.259 13.8047C26.9139 14.0195 26.52 14.127 26.0773 14.127C25.5565 14.127 25.1496 14.0065 24.8566 13.7656C24.5637 13.5182 24.3846 13.1471 24.3195 12.6523ZM24.3195 11.9395V8.88281C23.5318 9.34505 22.9458 9.83984 22.5617 10.3672C22.3078 10.7188 22.1809 11.0736 22.1809 11.4316C22.1809 11.7311 22.2883 11.9948 22.5031 12.2227C22.6659 12.3984 22.8937 12.4863 23.1867 12.4863C23.5122 12.4863 23.8898 12.304 24.3195 11.9395ZM32.5914 0.757812V9.46875L34.7105 7.38867C35.1467 6.96549 35.4169 6.65951 35.5211 6.4707C35.6318 6.2819 35.6871 6.09961 35.6871 5.92383C35.6871 5.74805 35.6155 5.60156 35.4723 5.48438C35.329 5.36719 35.0491 5.28255 34.6324 5.23047V4.86914H38.7242V5.23047C38.3336 5.25 37.9918 5.3444 37.6988 5.51367C37.4059 5.67643 36.8329 6.17448 35.9801 7.00781L34.984 7.98438L37.1324 11.1289C37.9983 12.4049 38.5126 13.1211 38.6754 13.2773C38.8967 13.4987 39.1767 13.6224 39.5152 13.6484V14H34.7984V13.6484C35.0068 13.6484 35.1565 13.6094 35.2477 13.5312C35.3453 13.4531 35.3941 13.3685 35.3941 13.2773C35.3941 13.1276 35.2574 12.8509 34.984 12.4473L33.1773 9.80078L32.5914 10.377V12.0176C32.5914 12.7142 32.6565 13.1504 32.7867 13.3262C32.9169 13.4954 33.1839 13.6029 33.5875 13.6484V14H28.8707V13.6484C29.2548 13.6094 29.5283 13.4857 29.691 13.2773C29.8017 13.1341 29.857 12.7142 29.857 12.0176V2.74023C29.857 2.05013 29.7919 1.62044 29.6617 1.45117C29.538 1.2819 29.2743 1.17122 28.8707 1.11914V0.757812H32.5914ZM47.3477 9.10742H42.3379C42.3965 10.3184 42.7187 11.2754 43.3047 11.9785C43.7539 12.5189 44.2943 12.7891 44.9258 12.7891C45.3164 12.7891 45.6712 12.6816 45.9902 12.4668C46.3092 12.2454 46.651 11.8516 47.0156 11.2852L47.3477 11.5C46.8529 12.5091 46.306 13.2253 45.707 13.6484C45.1081 14.0651 44.4147 14.2734 43.6269 14.2734C42.2728 14.2734 41.2474 13.7526 40.5508 12.7109C39.9909 11.8711 39.7109 10.8294 39.7109 9.58594C39.7109 8.0625 40.1211 6.85156 40.9414 5.95312C41.7682 5.04818 42.735 4.5957 43.8418 4.5957C44.7663 4.5957 45.5671 4.97656 46.2441 5.73828C46.9277 6.49349 47.2956 7.61654 47.3477 9.10742ZM44.9453 8.45312C44.9453 7.40495 44.8867 6.68555 44.7695 6.29492C44.6589 5.9043 44.4831 5.60807 44.2422 5.40625C44.1055 5.28906 43.9232 5.23047 43.6953 5.23047C43.3568 5.23047 43.0801 5.39648 42.8652 5.72852C42.4811 6.30794 42.2891 7.10221 42.2891 8.11133V8.45312H44.9453ZM58.4715 4.61523L58.618 7.73047H58.2859C57.8888 6.80599 57.4754 6.17448 57.0457 5.83594C56.6225 5.4974 56.1993 5.32812 55.7762 5.32812C55.5092 5.32812 55.2814 5.41927 55.0926 5.60156C54.9038 5.77734 54.8094 5.98242 54.8094 6.2168C54.8094 6.39258 54.8745 6.56185 55.0047 6.72461C55.213 6.99154 55.7957 7.45052 56.7527 8.10156C57.7098 8.74609 58.338 9.29622 58.6375 9.75195C58.9435 10.2012 59.0965 10.7057 59.0965 11.2656C59.0965 11.7734 58.9695 12.2715 58.7156 12.7598C58.4617 13.248 58.1036 13.6224 57.6414 13.8828C57.1792 14.1432 56.6681 14.2734 56.1082 14.2734C55.672 14.2734 55.0893 14.1367 54.3602 13.8633C54.1648 13.7917 54.0314 13.7559 53.9598 13.7559C53.7449 13.7559 53.5659 13.9186 53.4227 14.2441H53.1004L52.9441 10.9629H53.2762C53.5691 11.8223 53.9695 12.4668 54.4773 12.8965C54.9917 13.3262 55.4767 13.541 55.9324 13.541C56.2449 13.541 56.4988 13.4466 56.6941 13.2578C56.896 13.0625 56.9969 12.8281 56.9969 12.5547C56.9969 12.2422 56.8992 11.972 56.7039 11.7441C56.5086 11.5163 56.0724 11.1712 55.3953 10.709C54.3992 10.0189 53.7547 9.49154 53.4617 9.12695C53.032 8.5931 52.8172 8.00391 52.8172 7.35938C52.8172 6.65625 53.0581 6.02148 53.5398 5.45508C54.0281 4.88216 54.7312 4.5957 55.6492 4.5957C56.144 4.5957 56.6225 4.71615 57.0848 4.95703C57.2605 5.05469 57.4038 5.10352 57.5145 5.10352C57.6316 5.10352 57.726 5.08073 57.7977 5.03516C57.8693 4.98307 57.9832 4.8431 58.1395 4.61523H58.4715ZM68.9113 4.86914V12.0176C68.9113 12.7142 68.9764 13.1504 69.1066 13.3262C69.2368 13.4954 69.5005 13.6029 69.8977 13.6484V14H66.1769V12.7793C65.7408 13.3001 65.3046 13.681 64.8684 13.9219C64.4322 14.1562 63.9439 14.2734 63.4035 14.2734C62.8892 14.2734 62.4302 14.1172 62.0266 13.8047C61.6294 13.4857 61.3625 13.1146 61.2258 12.6914C61.0891 12.2682 61.0207 11.5293 61.0207 10.4746V6.85156C61.0207 6.16146 60.9556 5.73177 60.8254 5.5625C60.7017 5.39323 60.438 5.28255 60.0344 5.23047V4.86914H63.7551V11.1094C63.7551 11.7604 63.7844 12.1803 63.843 12.3691C63.9081 12.5579 64.0057 12.7012 64.1359 12.7988C64.2727 12.8965 64.4289 12.9453 64.6047 12.9453C64.8391 12.9453 65.0506 12.8835 65.2394 12.7598C65.4999 12.5905 65.8124 12.2487 66.1769 11.7344V6.85156C66.1769 6.16146 66.1118 5.73177 65.9816 5.5625C65.8579 5.39323 65.5943 5.28255 65.1906 5.23047V4.86914H68.9113ZM74.6148 4.86914V6.93945C75.2203 5.99544 75.7509 5.37044 76.2066 5.06445C76.6624 4.75195 77.1018 4.5957 77.525 4.5957C77.8896 4.5957 78.1793 4.70964 78.3941 4.9375C78.6155 5.15885 78.7262 5.47461 78.7262 5.88477C78.7262 6.32096 78.6187 6.65951 78.4039 6.90039C78.1956 7.14128 77.9417 7.26172 77.6422 7.26172C77.2971 7.26172 76.9977 7.15104 76.7437 6.92969C76.4898 6.70833 76.3401 6.58464 76.2945 6.55859C76.2294 6.51953 76.1546 6.5 76.0699 6.5C75.8811 6.5 75.7021 6.57161 75.5328 6.71484C75.2659 6.9362 75.0641 7.25195 74.9273 7.66211C74.719 8.29362 74.6148 8.99023 74.6148 9.75195V11.8516L74.6246 12.3984C74.6246 12.7695 74.6474 13.0072 74.693 13.1113C74.7711 13.2871 74.885 13.4173 75.0348 13.502C75.191 13.5801 75.4514 13.6289 75.816 13.6484V14H70.8844V13.6484C71.2815 13.6159 71.5484 13.5085 71.6852 13.3262C71.8284 13.1374 71.9 12.6458 71.9 11.8516V6.80273C71.9 6.2819 71.874 5.94987 71.8219 5.80664C71.7568 5.62435 71.6624 5.49089 71.5387 5.40625C71.415 5.32161 71.1969 5.26302 70.8844 5.23047V4.86914H74.6148ZM86.6758 9.10742H81.666C81.7246 10.3184 82.0469 11.2754 82.6328 11.9785C83.082 12.5189 83.6224 12.7891 84.2539 12.7891C84.6445 12.7891 84.9993 12.6816 85.3184 12.4668C85.6374 12.2454 85.9792 11.8516 86.3438 11.2852L86.6758 11.5C86.181 12.5091 85.6341 13.2253 85.0352 13.6484C84.4362 14.0651 83.7428 14.2734 82.9551 14.2734C81.6009 14.2734 80.5755 13.7526 79.8789 12.7109C79.319 11.8711 79.0391 10.8294 79.0391 9.58594C79.0391 8.0625 79.4492 6.85156 80.2695 5.95312C81.0964 5.04818 82.0632 4.5957 83.1699 4.5957C84.0944 4.5957 84.8952 4.97656 85.5723 5.73828C86.2559 6.49349 86.6237 7.61654 86.6758 9.10742ZM84.2734 8.45312C84.2734 7.40495 84.2148 6.68555 84.0977 6.29492C83.987 5.9043 83.8112 5.60807 83.5703 5.40625C83.4336 5.28906 83.2513 5.23047 83.0234 5.23047C82.6849 5.23047 82.4082 5.39648 82.1934 5.72852C81.8092 6.30794 81.6172 7.10221 81.6172 8.11133V8.45312H84.2734ZM101.081 14.2734L98.5809 7.57422L96.1297 14.2734H95.6219L93.1902 7.65234C92.8256 6.64323 92.5164 5.98568 92.2625 5.67969C92.0997 5.47135 91.8523 5.32161 91.5203 5.23047V4.86914H96.1297V5.23047C95.8172 5.23047 95.6023 5.27604 95.4852 5.36719C95.368 5.45833 95.3094 5.5625 95.3094 5.67969C95.3094 5.79036 95.4135 6.1224 95.6219 6.67578L96.9598 10.2402L98.2488 6.67578L98.1512 6.44141C97.9559 5.95312 97.7833 5.64388 97.6336 5.51367C97.4904 5.37695 97.2658 5.28255 96.9598 5.23047V4.86914H101.637V5.23047C101.273 5.25 101.042 5.30208 100.944 5.38672C100.846 5.46484 100.798 5.57878 100.798 5.72852C100.798 5.87174 100.892 6.1875 101.081 6.67578L102.37 10.2402L103.542 6.95898C103.711 6.49023 103.796 6.17122 103.796 6.00195C103.796 5.74805 103.734 5.5625 103.61 5.44531C103.486 5.32812 103.246 5.25651 102.887 5.23047V4.86914H105.593V5.23047C105.293 5.26953 105.055 5.37695 104.88 5.55273C104.704 5.72201 104.476 6.21029 104.196 7.01758L101.637 14.2734H101.081ZM109.812 0.757812V6.04102C110.313 5.51367 110.772 5.14258 111.189 4.92773C111.605 4.70638 112.038 4.5957 112.487 4.5957C113.06 4.5957 113.549 4.75846 113.952 5.08398C114.362 5.40951 114.633 5.79362 114.763 6.23633C114.9 6.67253 114.968 7.41146 114.968 8.45312V12.0176C114.968 12.7142 115.033 13.1504 115.163 13.3262C115.293 13.4954 115.557 13.6029 115.954 13.6484V14H111.325V13.6484C111.651 13.6029 111.895 13.4727 112.058 13.2578C112.175 13.0885 112.234 12.6751 112.234 12.0176V7.94531C112.234 7.1901 112.204 6.7181 112.146 6.5293C112.087 6.33398 111.986 6.18424 111.843 6.08008C111.706 5.9694 111.55 5.91406 111.374 5.91406C111.114 5.91406 110.86 6.00521 110.612 6.1875C110.365 6.36328 110.098 6.67578 109.812 7.125V12.0176C109.812 12.6686 109.861 13.0755 109.958 13.2383C110.082 13.4596 110.336 13.5964 110.72 13.6484V14H106.091V13.6484C106.475 13.6094 106.749 13.4857 106.911 13.2773C107.022 13.1341 107.077 12.7142 107.077 12.0176V2.74023C107.077 2.05013 107.012 1.62044 106.882 1.45117C106.758 1.2819 106.495 1.17122 106.091 1.11914V0.757812H109.812ZM121.853 12.6523C120.74 13.6354 119.74 14.127 118.855 14.127C118.334 14.127 117.901 13.9577 117.556 13.6191C117.211 13.2741 117.039 12.8444 117.039 12.3301C117.039 11.6335 117.338 11.0085 117.937 10.4551C118.536 9.89518 119.841 9.15299 121.853 8.22852V7.31055C121.853 6.62044 121.814 6.1875 121.736 6.01172C121.664 5.82943 121.524 5.67318 121.316 5.54297C121.108 5.40625 120.873 5.33789 120.613 5.33789C120.19 5.33789 119.841 5.43229 119.568 5.62109C119.399 5.73828 119.314 5.875 119.314 6.03125C119.314 6.16797 119.405 6.33724 119.587 6.53906C119.835 6.81901 119.959 7.08919 119.959 7.34961C119.959 7.66862 119.838 7.94206 119.597 8.16992C119.363 8.39128 119.054 8.50195 118.67 8.50195C118.259 8.50195 117.914 8.37826 117.634 8.13086C117.361 7.88346 117.224 7.59375 117.224 7.26172C117.224 6.79297 117.41 6.34701 117.781 5.92383C118.152 5.49414 118.67 5.16536 119.334 4.9375C119.998 4.70964 120.688 4.5957 121.404 4.5957C122.27 4.5957 122.953 4.78125 123.455 5.15234C123.962 5.51693 124.291 5.91406 124.441 6.34375C124.532 6.61719 124.578 7.24544 124.578 8.22852V11.7734C124.578 12.1901 124.594 12.4538 124.627 12.5645C124.659 12.6686 124.708 12.7467 124.773 12.7988C124.838 12.8509 124.913 12.877 124.998 12.877C125.167 12.877 125.339 12.7565 125.515 12.5156L125.808 12.75C125.483 13.2318 125.144 13.5833 124.793 13.8047C124.448 14.0195 124.054 14.127 123.611 14.127C123.09 14.127 122.683 14.0065 122.39 13.7656C122.097 13.5182 121.918 13.1471 121.853 12.6523ZM121.853 11.9395V8.88281C121.065 9.34505 120.479 9.83984 120.095 10.3672C119.841 10.7188 119.714 11.0736 119.714 11.4316C119.714 11.7311 119.822 11.9948 120.037 12.2227C120.199 12.3984 120.427 12.4863 120.72 12.4863C121.046 12.4863 121.423 12.304 121.853 11.9395ZM130.037 1.5293V4.86914H132.205V5.83594H130.037V11.4707C130.037 11.998 130.06 12.3398 130.105 12.4961C130.158 12.6458 130.245 12.7695 130.369 12.8672C130.493 12.9583 130.607 13.0039 130.711 13.0039C131.134 13.0039 131.535 12.6816 131.912 12.0371L132.205 12.252C131.678 13.502 130.822 14.127 129.637 14.127C129.057 14.127 128.566 13.9674 128.162 13.6484C127.765 13.3229 127.511 12.9616 127.4 12.5645C127.335 12.3431 127.303 11.7441 127.303 10.7676V5.83594H126.111V5.49414C126.932 4.91471 127.628 4.30599 128.201 3.66797C128.781 3.02995 129.285 2.31706 129.715 1.5293H130.037ZM141.464 14.3711L138.514 7.60352C138.072 6.58138 137.743 5.95312 137.528 5.71875C137.32 5.48438 137.066 5.32161 136.766 5.23047V4.86914H141.62V5.23047C141.301 5.24349 141.076 5.30534 140.946 5.41602C140.816 5.52669 140.751 5.66016 140.751 5.81641C140.751 6.0638 140.914 6.55208 141.239 7.28125L142.802 10.8555L143.866 8.0918C144.25 7.10872 144.442 6.42513 144.442 6.04102C144.442 5.80013 144.361 5.60807 144.198 5.46484C144.042 5.32161 143.762 5.24349 143.358 5.23047V4.86914H146.415V5.23047C146.115 5.26302 145.871 5.38021 145.682 5.58203C145.494 5.77734 145.178 6.45117 144.735 7.60352L142.128 14.3711C141.47 16.0638 140.982 17.1055 140.663 17.4961C140.214 18.043 139.651 18.3164 138.973 18.3164C138.433 18.3164 137.994 18.1602 137.655 17.8477C137.323 17.5417 137.157 17.1706 137.157 16.7344C137.157 16.3568 137.271 16.0443 137.499 15.7969C137.733 15.5495 138.02 15.4258 138.358 15.4258C138.684 15.4258 138.944 15.5299 139.139 15.7383C139.341 15.9466 139.445 16.2689 139.452 16.7051C139.458 16.9525 139.488 17.112 139.54 17.1836C139.592 17.2552 139.667 17.291 139.764 17.291C139.921 17.291 140.087 17.1966 140.262 17.0078C140.523 16.7344 140.829 16.1094 141.18 15.1328L141.464 14.3711ZM151.181 4.5957C151.975 4.5957 152.714 4.80078 153.398 5.21094C154.081 5.62109 154.599 6.20378 154.95 6.95898C155.308 7.71419 155.488 8.54102 155.488 9.43945C155.488 10.735 155.159 11.819 154.501 12.6914C153.707 13.7461 152.61 14.2734 151.21 14.2734C149.836 14.2734 148.779 13.7917 148.036 12.8281C147.294 11.8646 146.923 10.748 146.923 9.47852C146.923 8.16992 147.301 7.0306 148.056 6.06055C148.818 5.08398 149.859 4.5957 151.181 4.5957ZM151.22 5.28906C150.888 5.28906 150.601 5.41602 150.361 5.66992C150.126 5.91732 149.97 6.41211 149.892 7.1543C149.82 7.88997 149.784 8.91536 149.784 10.2305C149.784 10.9271 149.83 11.5781 149.921 12.1836C149.993 12.6458 150.146 12.9974 150.38 13.2383C150.614 13.4792 150.881 13.5996 151.181 13.5996C151.474 13.5996 151.718 13.5182 151.913 13.3555C152.167 13.1341 152.336 12.8249 152.421 12.4277C152.551 11.8092 152.616 10.5592 152.616 8.67773C152.616 7.57096 152.555 6.8125 152.431 6.40234C152.307 5.98568 152.125 5.68294 151.884 5.49414C151.715 5.35742 151.493 5.28906 151.22 5.28906ZM165.293 4.86914V12.0176C165.293 12.7142 165.358 13.1504 165.488 13.3262C165.618 13.4954 165.882 13.6029 166.279 13.6484V14H162.558V12.7793C162.122 13.3001 161.686 13.681 161.25 13.9219C160.813 14.1562 160.325 14.2734 159.785 14.2734C159.27 14.2734 158.811 14.1172 158.408 13.8047C158.011 13.4857 157.744 13.1146 157.607 12.6914C157.47 12.2682 157.402 11.5293 157.402 10.4746V6.85156C157.402 6.16146 157.337 5.73177 157.207 5.5625C157.083 5.39323 156.819 5.28255 156.416 5.23047V4.86914H160.136V11.1094C160.136 11.7604 160.166 12.1803 160.224 12.3691C160.289 12.5579 160.387 12.7012 160.517 12.7988C160.654 12.8965 160.81 12.9453 160.986 12.9453C161.22 12.9453 161.432 12.8835 161.621 12.7598C161.881 12.5905 162.194 12.2487 162.558 11.7344V6.85156C162.558 6.16146 162.493 5.73177 162.363 5.5625C162.239 5.39323 161.976 5.28255 161.572 5.23047V4.86914H165.293ZM179.541 9.10742H174.532C174.59 10.3184 174.912 11.2754 175.498 11.9785C175.948 12.5189 176.488 12.7891 177.12 12.7891C177.51 12.7891 177.865 12.6816 178.184 12.4668C178.503 12.2454 178.845 11.8516 179.209 11.2852L179.541 11.5C179.047 12.5091 178.5 13.2253 177.901 13.6484C177.302 14.0651 176.608 14.2734 175.821 14.2734C174.467 14.2734 173.441 13.7526 172.745 12.7109C172.185 11.8711 171.905 10.8294 171.905 9.58594C171.905 8.0625 172.315 6.85156 173.135 5.95312C173.962 5.04818 174.929 4.5957 176.036 4.5957C176.96 4.5957 177.761 4.97656 178.438 5.73828C179.121 6.49349 179.489 7.61654 179.541 9.10742ZM177.139 8.45312C177.139 7.40495 177.08 6.68555 176.963 6.29492C176.853 5.9043 176.677 5.60807 176.436 5.40625C176.299 5.28906 176.117 5.23047 175.889 5.23047C175.551 5.23047 175.274 5.39648 175.059 5.72852C174.675 6.30794 174.483 7.10221 174.483 8.11133V8.45312H177.139ZM185.333 12.6523C184.22 13.6354 183.22 14.127 182.335 14.127C181.814 14.127 181.381 13.9577 181.036 13.6191C180.691 13.2741 180.518 12.8444 180.518 12.3301C180.518 11.6335 180.818 11.0085 181.417 10.4551C182.016 9.89518 183.321 9.15299 185.333 8.22852V7.31055C185.333 6.62044 185.294 6.1875 185.216 6.01172C185.144 5.82943 185.004 5.67318 184.796 5.54297C184.587 5.40625 184.353 5.33789 184.093 5.33789C183.669 5.33789 183.321 5.43229 183.048 5.62109C182.878 5.73828 182.794 5.875 182.794 6.03125C182.794 6.16797 182.885 6.33724 183.067 6.53906C183.315 6.81901 183.438 7.08919 183.438 7.34961C183.438 7.66862 183.318 7.94206 183.077 8.16992C182.843 8.39128 182.533 8.50195 182.149 8.50195C181.739 8.50195 181.394 8.37826 181.114 8.13086C180.841 7.88346 180.704 7.59375 180.704 7.26172C180.704 6.79297 180.889 6.34701 181.261 5.92383C181.632 5.49414 182.149 5.16536 182.813 4.9375C183.477 4.70964 184.167 4.5957 184.884 4.5957C185.749 4.5957 186.433 4.78125 186.934 5.15234C187.442 5.51693 187.771 5.91406 187.921 6.34375C188.012 6.61719 188.057 7.24544 188.057 8.22852V11.7734C188.057 12.1901 188.074 12.4538 188.106 12.5645C188.139 12.6686 188.188 12.7467 188.253 12.7988C188.318 12.8509 188.393 12.877 188.477 12.877C188.647 12.877 188.819 12.7565 188.995 12.5156L189.288 12.75C188.962 13.2318 188.624 13.5833 188.272 13.8047C187.927 14.0195 187.533 14.127 187.091 14.127C186.57 14.127 186.163 14.0065 185.87 13.7656C185.577 13.5182 185.398 13.1471 185.333 12.6523ZM185.333 11.9395V8.88281C184.545 9.34505 183.959 9.83984 183.575 10.3672C183.321 10.7188 183.194 11.0736 183.194 11.4316C183.194 11.7311 183.302 11.9948 183.516 12.2227C183.679 12.3984 183.907 12.4863 184.2 12.4863C184.526 12.4863 184.903 12.304 185.333 11.9395ZM193.517 1.5293V4.86914H195.685V5.83594H193.517V11.4707C193.517 11.998 193.54 12.3398 193.585 12.4961C193.637 12.6458 193.725 12.7695 193.849 12.8672C193.973 12.9583 194.086 13.0039 194.191 13.0039C194.614 13.0039 195.014 12.6816 195.392 12.0371L195.685 12.252C195.157 13.502 194.301 14.127 193.116 14.127C192.537 14.127 192.045 13.9674 191.642 13.6484C191.245 13.3229 190.991 12.9616 190.88 12.5645C190.815 12.3431 190.782 11.7441 190.782 10.7676V5.83594H189.591V5.49414C190.411 4.91471 191.108 4.30599 191.681 3.66797C192.26 3.02995 192.765 2.31706 193.195 1.5293H193.517Z" fill="#C0C0C0"/>
</svg>
