<svg width="56" height="47" viewBox="0 0 56 47" fill="none" xmlns="http://www.w3.org/2000/svg">
<g clip-path="url(#clip0_151_802)">
<path d="M53.5515 7.52267C52.4534 6.29496 50.9369 5.5695 49.2112 5.5695H40.5306V5.45789C40.5306 4.06277 40.0077 2.72346 39.1187 1.83058C38.2297 0.8819 37.027 0.323853 35.7197 0.323853H20.0318C18.6722 0.323853 17.4694 0.8819 16.5804 1.83058C15.6915 2.77926 15.1685 4.06277 15.1685 5.45789V5.5695H6.54019C4.81453 5.5695 3.29803 6.29496 2.19988 7.52267C1.10173 8.69456 0.369629 10.3687 0.369629 12.1545V39.9452C0.369629 41.7868 1.04944 43.4051 2.19988 44.577C3.29803 45.7489 4.86682 46.5302 6.54019 46.5302H49.2112C50.9369 46.5302 52.4534 45.8047 53.5515 44.577C54.6497 43.4051 55.3818 41.731 55.3818 39.9452V12.1545C55.3818 10.3129 54.702 8.69456 53.5515 7.52267ZM52.6626 39.9452H52.6103C52.6103 40.9497 52.2442 41.8426 51.6167 42.5122C50.9892 43.1819 50.1525 43.5725 49.2112 43.5725H6.54019C5.59892 43.5725 4.76224 43.1819 4.13472 42.5122C3.5072 41.8426 3.14115 40.9497 3.14115 39.9452V12.1545C3.14115 11.15 3.5072 10.2571 4.13472 9.58744C4.76224 8.91778 5.59892 8.52715 6.54019 8.52715H16.6327C17.4171 8.52715 18.0446 7.85749 18.0446 7.02042V5.40208C18.0446 4.78823 18.2538 4.23018 18.6199 3.83955C18.9859 3.44892 19.5088 3.2257 20.0841 3.2257H35.7197C36.2949 3.2257 36.8178 3.44892 37.1838 3.83955C37.5499 4.23018 37.7591 4.78823 37.7591 5.40208V7.02042C37.7591 7.85749 38.3866 8.52715 39.171 8.52715H49.2635C50.2048 8.52715 51.0415 8.91778 51.669 9.58744C52.2965 10.2571 52.6626 11.15 52.6626 12.1545V39.9452Z" fill="#3A3A3A"/>
<path d="M27.8758 12.3219C24.3199 12.3219 21.0777 13.8844 18.7768 16.3398C16.4236 18.8511 15.0117 22.2551 15.0117 26.0499C15.0117 29.8446 16.4759 33.3045 18.7768 35.7599C21.13 38.2711 24.3199 39.7778 27.8758 39.7778C31.4317 39.7778 34.6739 38.2153 36.9748 35.7599C39.3279 33.2487 40.7398 29.8446 40.7398 26.0499C40.7398 22.2551 39.2756 18.7953 36.9748 16.3398C34.6739 13.8844 31.4317 12.3219 27.8758 12.3219ZM34.9876 33.6951C33.1574 35.5925 30.6473 36.8202 27.8758 36.8202C25.1043 36.8202 22.5942 35.5925 20.7639 33.6951C18.9337 31.742 17.8355 29.0633 17.8355 26.1057C17.8355 23.148 18.986 20.4694 20.7639 18.5162C22.5942 16.5631 25.1043 15.3912 27.8758 15.3912C30.6473 15.3912 33.1574 16.6189 34.9876 18.5162C36.8179 20.4694 37.916 23.148 37.916 26.1057C37.9683 29.0633 36.8179 31.742 34.9876 33.6951Z" fill="#3A3A3A"/>
<path d="M46.492 17.7349C47.9072 17.7349 49.0544 16.5107 49.0544 15.0005C49.0544 13.4903 47.9072 12.2661 46.492 12.2661C45.0769 12.2661 43.9297 13.4903 43.9297 15.0005C43.9297 16.5107 45.0769 17.7349 46.492 17.7349Z" fill="#3A3A3A"/>
</g>
<defs>
<clipPath id="clip0_151_802">
<rect width="55.0383" height="46.3179" fill="white" transform="translate(0.369629 0.212219)"/>
</clipPath>
</defs>
</svg>
