<svg width="27" height="28" viewBox="0 0 27 28" fill="none" xmlns="http://www.w3.org/2000/svg">
<rect x="0.857178" width="26" height="28" rx="4" fill="white"/>
<path d="M13.8571 10.2791C14.9149 10.2791 15.6285 10.7712 16.0354 11.1824L17.6252 9.51068C16.6488 8.53325 15.3781 7.93335 13.8571 7.93335C11.6539 7.93335 9.75107 9.29497 8.82471 11.2767L10.6461 12.8002C11.1031 11.3374 12.3674 10.2791 13.8571 10.2791Z" fill="#EA4335"/>
<path d="M19.2652 14.1348C19.2652 13.636 19.2276 13.272 19.1462 12.8945H13.8572V15.1459H16.9618C16.8992 15.7054 16.5612 16.548 15.81 17.1142L17.5877 18.5972C18.6518 17.5389 19.2652 15.9818 19.2652 14.1348Z" fill="#4285F4"/>
<path d="M10.6525 15.1999C10.5335 14.8224 10.4647 14.4179 10.4647 14C10.4647 13.5821 10.5335 13.1776 10.6462 12.8002L8.82475 11.2767C8.44298 12.0991 8.22388 13.0226 8.22388 14C8.22388 14.9774 8.44298 15.9009 8.82475 16.7233L10.6525 15.1999Z" fill="#FBBC05"/>
<path d="M13.8572 20.0666C15.3782 20.0666 16.6551 19.5274 17.5877 18.5972L15.8101 17.1142C15.3344 17.4714 14.696 17.7209 13.8572 17.7209C12.3675 17.7209 11.1032 16.6625 10.6525 15.1998L8.83105 16.7232C9.75741 18.705 11.654 20.0666 13.8572 20.0666Z" fill="#34A853"/>
</svg>
