<svg width="15" height="13" viewBox="0 0 15 13" fill="none" xmlns="http://www.w3.org/2000/svg">
<path d="M2.93389 5.88106L7.82395 10.7711L12.714 5.88106C13.1464 5.44871 13.3892 4.86233 13.3892 4.25091C13.3892 3.63948 13.1464 3.0531 12.714 2.62076C12.4999 2.40669 12.2458 2.23687 11.9661 2.12102C11.6864 2.00516 11.3866 1.94553 11.0839 1.94553C10.4724 1.94553 9.88606 2.18842 9.45372 2.62076L7.82395 4.25052L6.19419 2.62153C5.76075 2.19499 5.17632 1.957 4.5682 1.9594C3.96008 1.96181 3.37755 2.20441 2.94749 2.63436C2.51744 3.06432 2.2747 3.64679 2.27215 4.25491C2.2696 4.86303 2.50745 5.44751 2.93389 5.88106ZM7.2807 1.53348L7.82395 2.07674L8.36721 1.53348C8.7234 1.17416 9.14706 0.888725 9.61386 0.693571C10.0807 0.498418 10.5814 0.397387 11.0874 0.396279C11.5933 0.395171 12.0945 0.494008 12.5621 0.687115C13.0298 0.880222 13.4547 1.1638 13.8125 1.52156C14.1702 1.87932 14.4538 2.30422 14.6469 2.77187C14.84 3.23952 14.9388 3.74071 14.9377 4.24666C14.9366 4.7526 14.8356 5.25335 14.6404 5.72015C14.4453 6.18695 14.1599 6.61061 13.8005 6.9668L8.36798 12.4001C8.29661 12.4716 8.21187 12.5282 8.11859 12.5669C8.02531 12.6056 7.92532 12.6255 7.82434 12.6255C7.72336 12.6255 7.62337 12.6056 7.53009 12.5669C7.43681 12.5282 7.35206 12.4716 7.2807 12.4001L1.84738 6.96757C1.48317 6.61252 1.19308 6.18869 0.993949 5.72066C0.794814 5.25263 0.690594 4.74972 0.687335 4.2411C0.684076 3.73248 0.781843 3.22827 0.974965 2.75773C1.16809 2.28719 1.45272 1.85967 1.81235 1.49999C2.17198 1.14031 2.59945 0.855616 3.06997 0.662427C3.54049 0.469239 4.04468 0.3714 4.5533 0.374587C5.06192 0.377774 5.56485 0.481923 6.03291 0.680992C6.50096 0.880062 6.92483 1.17009 7.27993 1.53425L7.2807 1.53348Z" fill="#7C7C7C"/>
</svg>
