<svg width="22" height="22" viewBox="0 0 22 22" fill="none" xmlns="http://www.w3.org/2000/svg">
<path d="M19.8 11C19.8 8.66609 18.8729 6.42778 17.2225 4.77746C15.5722 3.12714 13.3339 2.2 11 2.2C8.66609 2.2 6.42778 3.12714 4.77746 4.77746C3.12714 6.42778 2.2 8.66609 2.2 11C2.2 13.3339 3.12714 15.5722 4.77746 17.2225C6.42778 18.8729 8.66609 19.8 11 19.8C13.3339 19.8 15.5722 18.8729 17.2225 17.2225C18.8729 15.5722 19.8 13.3339 19.8 11ZM22 11C22 13.9174 20.8411 16.7153 18.7782 18.7782C16.7153 20.8411 13.9174 22 11 22C9.55546 22 8.12506 21.7155 6.79048 21.1627C5.4559 20.6099 4.24327 19.7996 3.22183 18.7782C1.15893 16.7153 0 13.9174 0 11C0 8.08262 1.15893 5.28473 3.22183 3.22183C5.28473 1.15893 8.08262 0 11 0C12.4445 0 13.8749 0.284523 15.2095 0.837325C16.5441 1.39013 17.7567 2.20038 18.7782 3.22183C19.7996 4.24327 20.6099 5.4559 21.1627 6.79048C21.7155 8.12506 22 9.55546 22 11ZM14.85 6.6C15.73 6.6 16.5 7.37 16.5 8.25C16.5 9.13 15.73 9.9 14.85 9.9C13.97 9.9 13.2 9.13 13.2 8.25C13.2 7.37 13.97 6.6 14.85 6.6ZM8.8 8.25C8.8 9.13 8.03 9.9 7.15 9.9C6.27 9.9 5.5 9.13 5.5 8.25C5.5 7.37 6.27 6.6 7.15 6.6C8.03 6.6 8.8 7.37 8.8 8.25ZM11 13.2C12.925 13.2 14.619 13.992 15.609 15.191L14.047 16.753C13.552 15.95 12.375 15.4 11 15.4C9.625 15.4 8.448 15.95 7.953 16.753L6.391 15.191C7.381 13.992 9.075 13.2 11 13.2Z" fill="#515153"/>
</svg>
