<svg width="24" height="24" viewBox="0 0 24 24" fill="none" xmlns="http://www.w3.org/2000/svg">
<g clip-path="url(#clip0_152_1897)">
<path d="M7.66087 6.38131C8.25333 4.90466 9.65557 3.94092 11.2116 3.94092H11.8284C13.3844 3.94092 14.7867 4.90466 15.3792 6.38131L15.4117 6.46249C15.8516 7.55877 16.0448 8.74277 15.9769 9.9263L15.9097 11.1001C15.8643 11.8918 16.0527 12.6791 16.4503 13.3591L16.9586 14.2286C17.1689 14.5883 17.28 15 17.28 15.4195C17.28 16.6978 16.2703 17.734 15.0247 17.734H8.01532C6.76975 17.734 5.76001 16.6978 5.76001 15.4195C5.76001 15 5.8711 14.5883 6.08141 14.2286L6.58976 13.3591C6.98733 12.6791 7.17574 11.8918 7.13036 11.1001L7.06308 9.9263C6.99524 8.74277 7.18844 7.55877 7.6283 6.46249L7.66087 6.38131Z" fill="white"/>
<path fill-rule="evenodd" clip-rule="evenodd" d="M6.90629 6.06237C7.62466 4.27193 9.32487 3.10339 11.2116 3.10339H11.8283C13.7151 3.10339 15.4153 4.27193 16.1337 6.06237L16.1662 6.14354C16.6528 7.35631 16.8665 8.6661 16.7915 9.97539L16.7242 11.1492C16.6885 11.7727 16.8369 12.3926 17.1499 12.9282L17.6583 13.7977C17.9447 14.2875 18.096 14.8481 18.096 15.4194C18.096 17.1602 16.7209 18.5714 15.0247 18.5714H8.01528C6.31904 18.5714 4.94397 17.1602 4.94397 15.4194C4.94397 14.8481 5.09526 14.2875 5.38165 13.7977L5.89 12.9282C6.20309 12.3926 6.35146 11.7727 6.31573 11.1492L6.24845 9.97539C6.1734 8.6661 6.38713 7.35631 6.87372 6.14355L6.90629 6.06237ZM11.2116 4.77827C9.98619 4.77827 8.88193 5.53722 8.41536 6.70008L8.38279 6.78125C7.98967 7.76106 7.817 8.81925 7.87763 9.87704L7.94491 11.0509C7.99993 12.0108 7.77148 12.9654 7.28943 13.7899L6.78108 14.6594C6.64687 14.889 6.57597 15.1516 6.57597 15.4194C6.57597 16.2352 7.22037 16.8965 8.01528 16.8965H15.0247C15.8196 16.8965 16.464 16.2352 16.464 15.4194C16.464 15.1516 16.3931 14.889 16.2589 14.6594L15.7505 13.7899C15.2685 12.9654 15.04 12.0108 15.095 11.0509L15.1623 9.87704C15.2229 8.81925 15.0503 7.76106 14.6571 6.78125L14.6246 6.70008C14.158 5.53721 13.0537 4.77827 11.8283 4.77827H11.2116Z" fill="white"/>
<path fill-rule="evenodd" clip-rule="evenodd" d="M8.78406 19.7044C8.78406 19.2419 9.14939 18.8669 9.60006 18.8669H13.4401C13.8907 18.8669 14.2561 19.2419 14.2561 19.7044C14.2561 20.1669 13.8907 20.5418 13.4401 20.5418H9.60006C9.14939 20.5418 8.78406 20.1669 8.78406 19.7044Z" fill="white"/>
<g filter="url(#filter0_d_152_1897)">
<ellipse cx="17.7599" cy="6.40396" rx="4.32" ry="4.4335" fill="#E96F6F"/>
<path d="M21.3299 6.40396C21.3299 8.45675 19.7134 10.0875 17.7599 10.0875C15.8065 10.0875 14.1899 8.45675 14.1899 6.40396C14.1899 4.35116 15.8065 2.72046 17.7599 2.72046C19.7134 2.72046 21.3299 4.35116 21.3299 6.40396Z" stroke="white" stroke-width="1.5"/>
</g>
</g>
<defs>
<filter id="filter0_d_152_1897" x="0.439941" y="-11.0295" width="36.64" height="36.8669" filterUnits="userSpaceOnUse" color-interpolation-filters="sRGB">
<feFlood flood-opacity="0" result="BackgroundImageFix"/>
<feColorMatrix in="SourceAlpha" type="matrix" values="0 0 0 0 0 0 0 0 0 0 0 0 0 0 0 0 0 0 127 0" result="hardAlpha"/>
<feMorphology radius="1" operator="dilate" in="SourceAlpha" result="effect1_dropShadow_152_1897"/>
<feOffset dx="1" dy="1"/>
<feGaussianBlur stdDeviation="6.5"/>
<feComposite in2="hardAlpha" operator="out"/>
<feColorMatrix type="matrix" values="0 0 0 0 0.8 0 0 0 0 0.929412 0 0 0 0 0.980392 0 0 0 0.5 0"/>
<feBlend mode="normal" in2="BackgroundImageFix" result="effect1_dropShadow_152_1897"/>
<feBlend mode="normal" in="SourceGraphic" in2="effect1_dropShadow_152_1897" result="shape"/>
</filter>
<clipPath id="clip0_152_1897">
<rect width="23.04" height="23.6453" fill="white"/>
</clipPath>
</defs>
</svg>
